<svg xmlns="http://www.w3.org/2000/svg" viewBox="0 0 36.08 36.08"><defs><style>.cls-1{fill:#fff;}.cls-2{opacity:0.8;}.cls-3{fill:#2999bd;}</style></defs><title>instagram</title><g id="Layer_2" data-name="Layer 2"><g id="Capa_1" data-name="Capa 1"><circle class="cls-1" cx="18.04" cy="18.04" r="18.04" transform="translate(-0.75 35.29) rotate(-87.56)"/><g id="_34hbmL.tif" data-name="34hbmL.tif" class="cls-2"><path class="cls-3" d="M18.06,7c1.48,0,3,0,4.44.08A7.28,7.28,0,0,1,26.15,8a5.5,5.5,0,0,1,2.65,3.88A20.91,20.91,0,0,1,29.05,15c0,2.19,0,4.39,0,6.58a10.56,10.56,0,0,1-.43,3.4,5.53,5.53,0,0,1-4.45,3.87,18.19,18.19,0,0,1-3.05.25c-2.18,0-4.36,0-6.54,0a10.9,10.9,0,0,1-3.41-.43,5.56,5.56,0,0,1-3.88-4.45,18.16,18.16,0,0,1-.25-3C7,19,7,16.76,7,14.56a10.89,10.89,0,0,1,.44-3.4,5.53,5.53,0,0,1,4.45-3.87A20.57,20.57,0,0,1,15,7C16,7,17,7,18.06,7Zm9.05,10.87h0c0-.87,0-1.74,0-2.61s-.06-1.67-.14-2.5a3.71,3.71,0,0,0-3.14-3.5A18.06,18.06,0,0,0,20.84,9Q18,9,15.23,9a20,20,0,0,0-2.79.19A3.6,3.6,0,0,0,9.32,12a6.49,6.49,0,0,0-.24,1.57q-.08,3-.07,6c0,1.27,0,2.55.15,3.81a3.69,3.69,0,0,0,3.18,3.53,18,18,0,0,0,2.94.21c1.84,0,3.68,0,5.53,0,.84,0,1.69-.06,2.53-.14a3.92,3.92,0,0,0,3.63-4C27.05,21.24,27.07,19.56,27.11,17.87Z"/><path class="cls-3" d="M23.7,18.06a5.66,5.66,0,1,1-5.61-5.67A5.64,5.64,0,0,1,23.7,18.06ZM18,21.72a3.67,3.67,0,1,0-3.67-3.67A3.68,3.68,0,0,0,18,21.72Z"/><path class="cls-3" d="M25.25,12.16a1.34,1.34,0,0,1-1.33,1.34,1.36,1.36,0,0,1-1.33-1.34,1.34,1.34,0,0,1,1.32-1.32A1.3,1.3,0,0,1,25.25,12.16Z"/></g></g></g></svg>