<svg xmlns="http://www.w3.org/2000/svg" viewBox="0 0 36.08 36.08"><defs><style>.cls-1{fill:#f1f2f2;}.cls-2{opacity:0.8;}.cls-3{fill:#2999bd;}</style></defs><title>phone</title><g id="Layer_2" data-name="Layer 2"><g id="Capa_1" data-name="Capa 1"><path class="cls-1" d="M0,18a18,18,0,1,1,18,18A18,18,0,0,1,0,18Z"/><g class="cls-2"><g id="g4780"><g id="g15"><path id="path17-6" class="cls-3" d="M26,22.43c-.58-.47-1.2-.89-1.81-1.32-1.22-.85-2.34-.92-3.25.46a1.43,1.43,0,0,1-2,.47,8.81,8.81,0,0,1-4.59-4.48,1.72,1.72,0,0,1,.56-2.41,1.73,1.73,0,0,0,1-1.52c-.06-1-2.46-4.29-3.41-4.64a1.65,1.65,0,0,0-1.18,0A3.34,3.34,0,0,0,9,13.73a24.62,24.62,0,0,0,13.63,13.7,5.33,5.33,0,0,0,1,.27,4.41,4.41,0,0,0,3.64-2.77c.47-1.33-.53-1.86-1.32-2.5Z"/><path id="path19-1" class="cls-3" d="M18.81,9.4c4.65.71,6.8,2.93,7.4,7.62.05.44-.11,1.09.51,1.1s.49-.63.5-1.06a8.86,8.86,0,0,0-8.28-8.67c-.34,0-1-.24-1.08.52,0,.51.56.43.95.49Z"/><path id="path21-2" class="cls-3" d="M19.72,10.68c-.45,0-1-.26-1.15.36s.55.59,1,.68c2.87.64,3.88,1.69,4.35,4.55.07.41-.07,1.06.64.95.52-.08.33-.63.38-1a5.88,5.88,0,0,0-5.2-5.58Z"/><path id="path23" class="cls-3" d="M20,12.93c-.3,0-.59,0-.7.35-.17.48.18.6.53.65A2.1,2.1,0,0,1,21.73,16c0,.32.24.57.55.54s.46-.43.45-.8A3.09,3.09,0,0,0,20,12.93Z"/></g></g></g></g></g></svg>