<svg xmlns="http://www.w3.org/2000/svg" viewBox="0 0 36.08 36.08"><defs><style>.cls-1{fill:#f1f2f2;}.cls-2{opacity:0.8;}.cls-3{fill:#2999bd;}</style></defs><title>skype</title><g id="Layer_2" data-name="Layer 2"><g id="Capa_1" data-name="Capa 1"><circle class="cls-1" cx="18.04" cy="18.04" r="18.04" transform="translate(-1.09 34.92) rotate(-86.43)"/><g class="cls-2"><path class="cls-3" d="M27.08,19.47A9.63,9.63,0,0,0,27.19,18,9.15,9.15,0,0,0,18,8.89,9.63,9.63,0,0,0,16.61,9,5.53,5.53,0,0,0,9,16.61,9.63,9.63,0,0,0,8.89,18,9.15,9.15,0,0,0,18,27.19a9.73,9.73,0,0,0,1.43-.11,5.53,5.53,0,0,0,7.61-7.61Zm-4.7,2.73a3.76,3.76,0,0,1-1.7,1.31A6.81,6.81,0,0,1,18,24a6.22,6.22,0,0,1-3-.65,3.87,3.87,0,0,1-1.37-1.23,2.66,2.66,0,0,1-.54-1.52,1,1,0,0,1,.33-.75,1.2,1.2,0,0,1,.83-.31,1,1,0,0,1,.69.25,1.8,1.8,0,0,1,.48.7,4.18,4.18,0,0,0,.5.9,2,2,0,0,0,.75.59A2.94,2.94,0,0,0,18,22.2a3.06,3.06,0,0,0,1.77-.47,1.36,1.36,0,0,0,.67-1.16,1.15,1.15,0,0,0-.35-.89,2.44,2.44,0,0,0-.95-.54c-.4-.12-.92-.25-1.58-.39a11.9,11.9,0,0,1-2.23-.68A3.55,3.55,0,0,1,13.88,17a2.6,2.6,0,0,1-.53-1.68,2.75,2.75,0,0,1,.56-1.69,3.4,3.4,0,0,1,1.62-1.14A6.9,6.9,0,0,1,18,12.1a6.72,6.72,0,0,1,2,.26,4.36,4.36,0,0,1,1.38.7,3,3,0,0,1,.81.92,2,2,0,0,1,.26.95,1.09,1.09,0,0,1-.33.77,1.06,1.06,0,0,1-.81.34,1,1,0,0,1-.68-.21,2.66,2.66,0,0,1-.49-.66,3.08,3.08,0,0,0-.79-1,2.44,2.44,0,0,0-1.49-.35,2.75,2.75,0,0,0-1.53.38,1.11,1.11,0,0,0-.58.91.94.94,0,0,0,.2.57,1.54,1.54,0,0,0,.54.41,4.09,4.09,0,0,0,.7.28l1.19.3c.69.15,1.32.31,1.89.49a6.43,6.43,0,0,1,1.44.67,2.81,2.81,0,0,1,.94,1A3.05,3.05,0,0,1,23,20.32a3.2,3.2,0,0,1-.59,1.88Z"/></g></g></g></svg>