<svg xmlns="http://www.w3.org/2000/svg" viewBox="0 0 36.08 36.08"><defs><style>.cls-1{fill:#f1f2f2;}.cls-2{opacity:0.8;}.cls-3{fill:#2999bd;fill-rule:evenodd;}</style></defs><title>wpp</title><g id="Layer_2" data-name="Layer 2"><g id="Capa_1" data-name="Capa 1"><circle class="cls-1" cx="18.04" cy="18.04" r="18.04"/><g class="cls-2"><path class="cls-3" d="M22.84,20c-.25-.14-1.46-.79-1.69-.89s-.39-.14-.57.11-.68.79-.83,1-.3.18-.55,0a7,7,0,0,1-2-1.33,7.26,7.26,0,0,1-1.33-1.79.36.36,0,0,1,.12-.51c.12-.11.27-.28.4-.42a1.77,1.77,0,0,0,.26-.41.46.46,0,0,0,0-.44c-.06-.13-.51-1.39-.7-1.9s-.41-.43-.55-.44-.32,0-.48,0a1,1,0,0,0-.69.29,2.83,2.83,0,0,0-.95,2.07A4.94,4.94,0,0,0,14.23,18a10.37,10.37,0,0,0,4.15,3.95c2.52,1.11,2.53.77,3,.75a2.57,2.57,0,0,0,1.74-1.13,2.15,2.15,0,0,0,.2-1.19c-.06-.11-.23-.18-.47-.31ZM18.22,26a8.22,8.22,0,0,1-4.51-1.35l-3.14,1,1-3.05A8.19,8.19,0,1,1,18.22,26Zm0-18A9.84,9.84,0,0,0,9.79,22.86L8,28.14l5.44-1.74A9.84,9.84,0,1,0,18.22,7.94Z"/></g></g></g></svg>