<svg xmlns="http://www.w3.org/2000/svg" viewBox="0 0 136.77 76.18"><defs><style>.cls-1{fill:#fff;}</style></defs><title>logoBlanco</title><g id="Layer_2" data-name="Layer 2"><g id="Capa_1" data-name="Capa 1"><path class="cls-1" d="M14.4,13.73H6.49V6.25H29.71v7.48H21.84V55.56H14.4Z"/><path class="cls-1" d="M44.85,6.25q6.23,0,9.13,3.42,2.57,3,2.56,8.34v7.17a11.5,11.5,0,0,1-4,8.85l5.51,21.53H50L45.52,37h-5V55.56H33.13V6.25ZM49.3,18.13q0-4.29-4.25-4.29H40.56V29.62h4.49a4.06,4.06,0,0,0,3-1.26,4.14,4.14,0,0,0,1.24-3Z"/><path class="cls-1" d="M68.77,34.9,58.82,6.21H67l5.51,17.71L78,6.21h8.23l-10,28.69V55.56H68.77Z"/><path class="cls-1" d="M101.31,6.24V55.56H95.82V6.24Z"/><path class="cls-1" d="M114.13,55.56V11.24H105v-5h23.68v5h-9.09V55.56Z"/><path class="cls-1" d="M8,74v2.18H0V0H8V2.17H2.39V74Z"/><path class="cls-1" d="M128.79,2.17V0h8V76.18h-8V74h5.59V2.17Z"/><path class="cls-1" d="M18.63,68.39l.67.6a3.82,3.82,0,0,1-2.61,1.12,3.53,3.53,0,0,1-3.54-3.54,3.44,3.44,0,0,1,1-2.51,3.41,3.41,0,0,1,2.5-1,3.83,3.83,0,0,1,2.61,1.13l-.67.61a2.89,2.89,0,0,0-1.94-.83,2.64,2.64,0,0,0,0,5.28A2.88,2.88,0,0,0,18.63,68.39Z"/><path class="cls-1" d="M26.34,64.05a3.55,3.55,0,0,1,0,5,3.56,3.56,0,0,1-6.07-2.51,3.56,3.56,0,0,1,6.07-2.51Zm-2.51-.13a2.54,2.54,0,0,0-1.88.77,2.65,2.65,0,1,0,3.75,0A2.54,2.54,0,0,0,23.83,63.92Z"/><path class="cls-1" d="M29.61,63.1,31.86,67,34.1,63.1h.82V70H34V65l-2.16,3.74L29.69,65v5h-.9V63.1Z"/><path class="cls-1" d="M40.25,63.1h.9V68a2.31,2.31,0,0,1-.69,1.41,2.34,2.34,0,0,1-3.33,0,2.31,2.31,0,0,1-.7-1.67V63.1h.91v4.64a1.45,1.45,0,0,0,1.45,1.45,1.43,1.43,0,0,0,1.46-1.45Z"/><path class="cls-1" d="M42.46,63.1h.82l2.86,4.95V63.1H47V70h-.78l-2.91-5v5h-.89Z"/><path class="cls-1" d="M49.33,63.1V70h-.9V63.1Z"/><path class="cls-1" d="M56.09,68.39l.67.6a3.82,3.82,0,0,1-2.61,1.12,3.53,3.53,0,0,1-3.54-3.54,3.44,3.44,0,0,1,1-2.51,3.41,3.41,0,0,1,2.5-1,3.83,3.83,0,0,1,2.61,1.13l-.67.61a2.91,2.91,0,0,0-1.94-.83,2.54,2.54,0,0,0-1.86.78,2.64,2.64,0,0,0,0,3.73,2.53,2.53,0,0,0,1.86.77A2.9,2.9,0,0,0,56.09,68.39Z"/><path class="cls-1" d="M60.24,63.1,62.77,70h-1l-.89-2.45H59.08L58.19,70h-1l2.53-6.94Zm.36,3.59L60,65.06l-.59,1.63Z"/><path class="cls-1" d="M68.83,68.39l.67.6a3.81,3.81,0,0,1-2.6,1.12,3.55,3.55,0,1,1,0-7.09,3.83,3.83,0,0,1,2.6,1.13l-.67.61a2.89,2.89,0,0,0-1.93-.83,2.64,2.64,0,0,0,0,5.28A2.88,2.88,0,0,0,68.83,68.39Z"/><path class="cls-1" d="M71.57,63.1V70h-.9V63.1Z"/><path class="cls-1" d="M78.92,64.05a3.55,3.55,0,0,1,0,5,3.56,3.56,0,0,1-6.07-2.51,3.56,3.56,0,0,1,6.07-2.51Zm-2.51-.13a2.54,2.54,0,0,0-1.88.77,2.65,2.65,0,1,0,3.75,0A2.54,2.54,0,0,0,76.41,63.92Zm.26-2.46h1.09l-1.18,1.21h-.85Z"/><path class="cls-1" d="M81.16,63.1H82l2.86,4.95V63.1h.9V70H85l-2.91-5v5h-.89Z"/><path class="cls-1" d="M89,67.13H87.11V65.94H89V64.06h1.2v1.88h1.89v1.19H90.19V69H89Z"/><path class="cls-1" d="M94.1,63.1a3.62,3.62,0,0,1,2.64,1,3.55,3.55,0,0,1,0,5,3.54,3.54,0,0,1-2.64,1h-.65V63.1Zm.24.92v5.11a2.37,2.37,0,0,0,1.76-.69,2.66,2.66,0,0,0,0-3.74A2.37,2.37,0,0,0,94.34,64Z"/><path class="cls-1" d="M99.85,63.1V70H99V63.1Z"/><path class="cls-1" d="M103,66.48a3,3,0,0,1-1.19-.7,1.55,1.55,0,0,1-.46-1.14,1.59,1.59,0,0,1,.47-1.14,1.62,1.62,0,0,1,2.3,0,2,2,0,0,1,.45.82l-.81.33a1.77,1.77,0,0,0-.27-.53.77.77,0,0,0-.52-.2.72.72,0,0,0-.72.72.72.72,0,0,0,.21.52,2.51,2.51,0,0,0,.66.43,3.34,3.34,0,0,1,1.38.83,2.15,2.15,0,0,1,0,3.06,2.08,2.08,0,0,1-1.53.63,2.12,2.12,0,0,1-1.53-.63,2.44,2.44,0,0,1-.64-1.4l.87-.32a1.81,1.81,0,0,0,.41,1.09,1.19,1.19,0,0,0,.89.37,1.27,1.27,0,0,0,.9-2.17A2.53,2.53,0,0,0,103,66.48Z"/><path class="cls-1" d="M109.76,63.1V64h-2.84v2.12h2.84V67h-2.84v2.12h2.84V70H106V63.1Z"/><path class="cls-1" d="M111,63.1h.82l2.86,4.95V63.1h.91V70h-.79l-2.9-5v5H111Zm2.4-1.5c.18.17.31.25.38.25h0c.09,0,.13-.06.13-.17a1.33,1.33,0,0,0,0-.3h.8c-.11.63-.32,1-.63,1.09a1.18,1.18,0,0,1-.25,0,.87.87,0,0,1-.58-.25c-.17-.17-.3-.25-.38-.25h0c-.09,0-.13.06-.13.17a1,1,0,0,0,.06.29h-.81c.11-.64.32-1,.64-1.1a1,1,0,0,1,.25,0A.82.82,0,0,1,113.35,61.6Z"/><path class="cls-1" d="M122.79,64.05a3.55,3.55,0,1,1-6.06,2.51,3.55,3.55,0,0,1,6.06-2.51Zm-2.51-.13a2.63,2.63,0,0,0-2.64,2.64,2.63,2.63,0,0,0,2.64,2.65,2.64,2.64,0,0,0,1.87-4.52A2.52,2.52,0,0,0,120.28,63.92Z"/></g></g></svg>